<?xml version="1.0" encoding="utf-8"?>
<!-- Generator: Adobe Illustrator 15.0.0, SVG Export Plug-In . SVG Version: 6.00 Build 0)  -->
<svg version="1.2" baseProfile="tiny" id="binoc" xmlns="http://www.w3.org/2000/svg" xmlns:xlink="http://www.w3.org/1999/xlink"
	 x="0px" y="0px" width="395.5px" height="171px" viewBox="0 0 395.5 171" overflow="inherit" xml:space="preserve">
<g id="binoculars">
	<g id="Circle">
		<circle fill="#FFFFFF" stroke="#58595B" stroke-width="6" stroke-miterlimit="10" cx="88.76" cy="88.993" r="76.046"/>
		<circle fill="#FFFFFF" stroke="#58595B" stroke-width="6" stroke-miterlimit="10" cx="200" cy="45.678" r="11.567"/>
		<circle fill="#FFFFFF" stroke="#58595B" stroke-width="6" stroke-miterlimit="10" cx="88.76" cy="88.993" r="54.389"/>
		<path fill="none" stroke="#58595B" stroke-miterlimit="10" d="M90,23.5c0,1.104-0.896,2-2,2l0,0c-1.104,0-2-0.896-2-2v-10
			c0-1.104,0.896-2,2-2l0,0c1.104,0,2,0.896,2,2V23.5z"/>
		<path fill="none" stroke="#58595B" stroke-miterlimit="10" d="M90,165.5c0,1.104-0.896,2-2,2l0,0c-1.104,0-2-0.896-2-2v-10
			c0-1.104,0.896-2,2-2l0,0c1.104,0,2,0.896,2,2V165.5z"/>
		<path fill="none" stroke="#58595B" stroke-miterlimit="10" d="M21.688,87.092c1.178,0.018,2.119,0.986,2.101,2.164
			l-0.003,0.163c-0.017,1.179-0.987,2.12-2.165,2.102L12.6,91.386c-1.178-0.017-2.119-0.986-2.101-2.165l0.002-0.163
			c0.018-1.178,0.987-2.119,2.164-2.101L21.688,87.092z"/>
		<path fill="none" stroke="#58595B" stroke-miterlimit="10" d="M164.921,87.092c1.178,0.018,2.119,0.986,2.101,2.164
			l-0.002,0.163c-0.017,1.179-0.987,2.12-2.165,2.102l-9.022-0.135c-1.178-0.017-2.119-0.986-2.101-2.165l0.002-0.163
			c0.018-1.178,0.988-2.119,2.166-2.101L164.921,87.092z"/>
		<path fill="none" stroke="#58595B" stroke-miterlimit="5" d="M42.703,40.15c0.833,0.833,0.833,2.184,0,3.017l-0.116,0.115
			c-0.833,0.833-2.184,0.833-3.017,0l-6.381-6.381c-0.833-0.832-0.833-2.183,0-3.016l0.116-0.116c0.833-0.833,2.184-0.833,3.017,0
			L42.703,40.15z"/>
		<path fill="none" stroke="#58595B" stroke-miterlimit="10" d="M143.983,141.431c0.833,0.833,0.833,2.185,0,3.018l-0.116,0.115
			c-0.833,0.833-2.184,0.833-3.016,0l-6.381-6.38c-0.833-0.833-0.833-2.185,0-3.018l0.116-0.115c0.833-0.833,2.184-0.833,3.016,0
			L143.983,141.431z"/>
		<path fill="none" stroke="#58595B" stroke-miterlimit="10" d="M39.989,135.075c0.846-0.82,2.196-0.8,3.016,0.045l0.114,0.118
			c0.821,0.845,0.801,2.196-0.045,3.016l-6.475,6.285c-0.845,0.82-2.196,0.801-3.016-0.045l-0.114-0.118
			c-0.821-0.845-0.8-2.196,0.044-3.016L39.989,135.075z"/>
		<path fill="none" stroke="#58595B" stroke-miterlimit="10" d="M141.27,33.794c0.845-0.821,2.196-0.801,3.016,0.045l0.114,0.118
			c0.82,0.845,0.801,2.196-0.045,3.016l-6.475,6.284c-0.845,0.821-2.195,0.801-3.016-0.044l-0.114-0.118
			c-0.82-0.845-0.8-2.196,0.046-3.017L141.27,33.794z"/>
	</g>
	<g>
		<circle fill="#FFFFFF" stroke="#58595B" stroke-width="6" stroke-miterlimit="10" cx="311.239" cy="88.993" r="76.047"/>
		<circle fill="#FFFFFF" stroke="#58595B" stroke-width="6" stroke-miterlimit="10" cx="311.24" cy="88.993" r="54.389"/>
		<path fill="none" stroke="#58595B" stroke-miterlimit="10" d="M312,23.5c0,1.104-0.896,2-2,2l0,0c-1.104,0-2-0.896-2-2v-10
			c0-1.104,0.896-2,2-2l0,0c1.104,0,2,0.896,2,2V23.5z"/>
		<path fill="none" stroke="#58595B" stroke-miterlimit="10" d="M314,11.167c0,1.289-16.449,2.333-36.739,2.333H121.739
			C101.449,13.5,85,12.456,85,11.167v-0.334C85,9.544,101.449,8.5,121.739,8.5h155.521C297.551,8.5,314,9.544,314,10.833V11.167z"/>
		<path fill="none" stroke="#58595B" stroke-miterlimit="10" d="M312,165.5c0,1.104-0.896,2-2,2l0,0c-1.104,0-2-0.896-2-2v-10
			c0-1.104,0.896-2,2-2l0,0c1.104,0,2,0.896,2,2V165.5z"/>
		<path fill="none" stroke="#58595B" stroke-miterlimit="10" d="M244.033,87.092c1.179,0.018,1.967,0.986,1.967,2.164v0.163
			c0,1.179-0.854,2.12-2.033,2.102l-8.955-0.135c-1.177-0.017-2.085-0.986-2.068-2.165l0.021-0.163
			c0.017-1.178,0.929-2.119,2.105-2.101L244.033,87.092z"/>
		<path fill="none" stroke="#58595B" stroke-miterlimit="10" d="M387.399,87.092c1.178,0.018,2.12,0.986,2.102,2.164
			l-0.003,0.163c-0.017,1.179-0.986,2.12-2.164,2.102l-9.021-0.135c-1.179-0.017-2.12-0.986-2.102-2.165l0.002-0.163
			c0.017-1.178,0.987-2.119,2.165-2.101L387.399,87.092z"/>
		<path fill="none" stroke="#58595B" stroke-miterlimit="10" d="M265.182,40.15c0.832,0.833,0.832,2.184,0,3.017l-0.115,0.115
			c-0.834,0.833-2.185,0.833-3.018,0l-6.38-6.381c-0.833-0.832-0.833-2.183,0-3.016l0.115-0.116c0.833-0.833,2.184-0.833,3.017,0
			L265.182,40.15z"/>
		<path fill="none" stroke="#58595B" stroke-miterlimit="10" d="M366.462,141.431c0.834,0.833,0.834,2.185,0.001,3.018
			l-0.116,0.115c-0.833,0.833-2.184,0.833-3.017,0l-6.38-6.38c-0.834-0.833-0.834-2.185,0-3.018l0.115-0.115
			c0.833-0.833,2.184-0.833,3.017,0L366.462,141.431z"/>
		<path fill="none" stroke="#58595B" stroke-miterlimit="10" d="M262.468,135.075c0.846-0.82,2.196-0.8,3.017,0.045l0.113,0.118
			c0.821,0.845,0.801,2.196-0.045,3.016l-6.475,6.285c-0.846,0.82-2.196,0.801-3.016-0.045l-0.115-0.118
			c-0.819-0.845-0.8-2.196,0.045-3.016L262.468,135.075z"/>
		<path fill="none" stroke="#58595B" stroke-miterlimit="10" d="M363.749,33.794c0.846-0.821,2.195-0.801,3.016,0.045
			l0.114,0.118c0.821,0.845,0.801,2.196-0.046,3.016l-6.475,6.284c-0.845,0.821-2.195,0.801-3.016-0.044l-0.114-0.118
			c-0.82-0.845-0.8-2.196,0.046-3.017L363.749,33.794z"/>
	</g>
	<rect x="197" y="11.5" fill="none" stroke="#58595B" stroke-miterlimit="10" width="5" height="23"/>
	<rect x="197" y="57.5" fill="none" stroke="#58595B" stroke-miterlimit="10" width="5" height="21"/>
	<path fill="none" stroke="#58595B" stroke-width="6" stroke-miterlimit="10" d="M155.671,125.653
		c25.809-65.396,65.436-65.274,88.597,0.251"/>
</g>
</svg>
